STARTFONT 2.1
FONT -DEC-Terminal-Medium-R-Double Wide--14-100-100-100-C-16-ISO8859-8
SIZE 10 100 100
FONTBOUNDINGBOX 16 17 0 -3

STARTPROPERTIES 25
FONTNAME_REGISTRY ""
FAMILY_NAME "Terminal"
FOUNDRY "DEC"
WEIGHT_NAME "Medium"
SETWIDTH_NAME "Double Wide"
SLANT "R"
ADD_STYLE_NAME ""
PIXEL_SIZE 14
RESOLUTION_X 100
RESOLUTION_Y 100
SPACING "C"
AVERAGE_WIDTH 160
CHARSET_REGISTRY "ISO8859"
CHARSET_ENCODING "8"
CHARSET_COLLECTIONS "ASCII ISO8859-8"
FULL_NAME "Terminal Double Wide"
COPYRIGHT "Digital Israel"
CAP_HEIGHT 10
X_HEIGHT 8
QUAD_WIDTH 16
POINT_SIZE 100
WEIGHT 10
DEFAULT_CHAR 159
FONT_DESCENT 3
FONT_ASCENT 12
ENDPROPERTIES

CHARS 157

STARTCHAR space
ENCODING 32
SWIDTH 1152 0
DWIDTH 16 0
BBX 2 11 7 0
BITMAP
00
00
00
00
00
00
00
00
00
00
00
ENDCHAR

STARTCHAR exclam
ENCODING 33
SWIDTH 1152 0
DWIDTH 16 0
BBX 2 11 7 0
BITMAP
C0
C0
C0
C0
C0
C0
C0
C0
00
C0
C0
ENDCHAR

STARTCHAR quotedbl
ENCODING 34
SWIDTH 1152 0
DWIDTH 16 0
BBX 6 4 5 7
BITMAP
CC
CC
CC
CC
ENDCHAR

STARTCHAR numbersign
ENCODING 35
SWIDTH 1152 0
DWIDTH 16 0
BBX 12 8 2 1
BITMAP
30C0
30C0
FFF0
30C0
30C0
FFF0
30C0
30C0
ENDCHAR

STARTCHAR dollar
ENCODING 36
SWIDTH 1152 0
DWIDTH 16 0
BBX 10 12 4 -1
BITMAP
0C00
0C00
7F80
E1C0
E000
7F80
1FC0
01C0
E1C0
7F80
0C00
0C00
ENDCHAR

STARTCHAR percent
ENCODING 37
SWIDTH 1152 0
DWIDTH 16 0
BBX 13 10 2 0
BITMAP
7830
CC60
CCC0
7980
0300
0600
0CF0
1998
3198
60F0
ENDCHAR

STARTCHAR ampersand
ENCODING 38
SWIDTH 1152 0
DWIDTH 16 0
BBX 14 10 2 0
BITMAP
1F00
3980
3180
3380
1F00
3E30
73E0
E1C0
F3F0
7F3C
ENDCHAR

STARTCHAR quoteright
ENCODING 39
SWIDTH 1152 0
DWIDTH 16 0
BBX 5 3 5 8
BITMAP
78
60
C0
ENDCHAR

STARTCHAR parenleft
ENCODING 40
SWIDTH 1152 0
DWIDTH 16 0
BBX 5 12 9 -1
BITMAP
18
30
70
60
E0
E0
E0
E0
60
70
30
18
ENDCHAR

STARTCHAR parenright
ENCODING 41
SWIDTH 1152 0
DWIDTH 16 0
BBX 5 12 3 -1
BITMAP
C0
60
70
30
38
38
38
38
30
70
60
C0
ENDCHAR

STARTCHAR asterisk
ENCODING 42
SWIDTH 1152 0
DWIDTH 16 0
BBX 10 5 3 5
BITMAP
6180
1E00
FFC0
1E00
6180
ENDCHAR

STARTCHAR plus
ENCODING 43
SWIDTH 1152 0
DWIDTH 16 0
BBX 10 8 3 1
BITMAP
0C00
0C00
0C00
FFC0
FFC0
0C00
0C00
0C00
ENDCHAR

STARTCHAR comma
ENCODING 44
SWIDTH 1152 0
DWIDTH 16 0
BBX 5 4 5 -2
BITMAP
38
30
60
C0
ENDCHAR

STARTCHAR minus
ENCODING 45
SWIDTH 1152 0
DWIDTH 16 0
BBX 10 2 3 4
BITMAP
FFC0
FFC0
ENDCHAR

STARTCHAR period
ENCODING 46
SWIDTH 1152 0
DWIDTH 16 0
BBX 3 2 6 0
BITMAP
E0
E0
ENDCHAR

STARTCHAR slash
ENCODING 47
SWIDTH 1152 0
DWIDTH 16 0
BBX 12 10 2 0
BITMAP
0070
00E0
01C0
0380
0700
0E00
1C00
3800
7000
E000
ENDCHAR

STARTCHAR zero
ENCODING 48
SWIDTH 1152 0
DWIDTH 16 0
BBX 11 10 3 0
BITMAP
1F00
71C0
E0E0
E0E0
E0E0
E0E0
E0E0
E0E0
71C0
1F00
ENDCHAR

STARTCHAR one
ENCODING 49
SWIDTH 1152 0
DWIDTH 16 0
BBX 11 10 4 0
BITMAP
0E00
1E00
3E00
6E00
0E00
0E00
0E00
0E00
0E00
FFE0
ENDCHAR

STARTCHAR two
ENCODING 50
SWIDTH 1152 0
DWIDTH 16 0
BBX 11 10 3 0
BITMAP
7FC0
E0E0
C0E0
41E0
07C0
1F00
3C00
7820
F060
FFE0
ENDCHAR

STARTCHAR three
ENCODING 51
SWIDTH 1152 0
DWIDTH 16 0
BBX 11 10 3 0
BITMAP
7FC0
E1E0
C0E0
01C0
0F00
01C0
00E0
C0E0
E1E0
7FC0
ENDCHAR

STARTCHAR four
ENCODING 52
SWIDTH 1152 0
DWIDTH 16 0
BBX 12 10 3 0
BITMAP
03C0
07C0
0FC0
19C0
31C0
61C0
E1C0
FFF0
01C0
01C0
ENDCHAR

STARTCHAR five
ENCODING 53
SWIDTH 1152 0
DWIDTH 16 0
BBX 11 10 3 0
BITMAP
7FC0
70C0
7000
7000
7FC0
71E0
00E0
00E0
F1E0
7FC0
ENDCHAR

STARTCHAR six
ENCODING 54
SWIDTH 1152 0
DWIDTH 16 0
BBX 12 10 3 0
BITMAP
0FC0
38E0
7000
E000
EFE0
F0F0
E070
E070
70E0
3FC0
ENDCHAR

STARTCHAR seven
ENCODING 55
SWIDTH 1152 0
DWIDTH 16 0
BBX 11 10 4 0
BITMAP
FFE0
C0E0
C1E0
03C0
0780
0F00
1E00
3C00
7800
F000
ENDCHAR

STARTCHAR eight
ENCODING 56
SWIDTH 1152 0
DWIDTH 16 0
BBX 11 10 3 0
BITMAP
7FC0
F1E0
E0E0
71C0
3F80
71C0
E0E0
E0E0
F1E0
7FC0
ENDCHAR

STARTCHAR nine
ENCODING 57
SWIDTH 1152 0
DWIDTH 16 0
BBX 12 10 2 0
BITMAP
3FC0
F0E0
E070
E070
70F0
3F70
0070
00E0
71C0
3F00
ENDCHAR

STARTCHAR colon
ENCODING 58
SWIDTH 1152 0
DWIDTH 16 0
BBX 3 7 6 0
BITMAP
E0
E0
00
00
00
E0
E0
ENDCHAR

STARTCHAR semicolon
ENCODING 59
SWIDTH 1152 0
DWIDTH 16 0
BBX 5 9 4 -2
BITMAP
38
38
00
00
00
38
30
60
C0
ENDCHAR

STARTCHAR less
ENCODING 60
SWIDTH 1152 0
DWIDTH 16 0
BBX 7 10 5 0
BITMAP
0E
1C
38
70
E0
E0
70
38
1C
0E
ENDCHAR

STARTCHAR equal
ENCODING 61
SWIDTH 1152 0
DWIDTH 16 0
BBX 12 5 2 2
BITMAP
FFF0
FFF0
0000
FFF0
FFF0
ENDCHAR

STARTCHAR greater
ENCODING 62
SWIDTH 1152 0
DWIDTH 16 0
BBX 7 10 5 0
BITMAP
E0
70
38
1C
0E
0E
1C
38
70
E0
ENDCHAR

STARTCHAR question
ENCODING 63
SWIDTH 1152 0
DWIDTH 16 0
BBX 9 10 3 0
BITMAP
7F00
E380
C380
0700
0E00
1C00
1800
0000
1800
1800
ENDCHAR

STARTCHAR at
ENCODING 64
SWIDTH 1152 0
DWIDTH 16 0
BBX 14 10 2 0
BITMAP
0FF0
3838
701C
E3FC
E61C
E73C
E3DC
E000
7000
1FE0
ENDCHAR

STARTCHAR A
ENCODING 65
SWIDTH 1152 0
DWIDTH 16 0
BBX 14 10 2 0
BITMAP
0300
0780
0FC0
0CC0
1CE0
3870
3FF0
7038
7038
F87C
ENDCHAR

STARTCHAR B
ENCODING 66
SWIDTH 1152 0
DWIDTH 16 0
BBX 13 10 2 0
BITMAP
FFF0
7078
7038
7070
7FE0
7070
7038
7038
7078
FFF0
ENDCHAR

STARTCHAR C
ENCODING 67
SWIDTH 1152 0
DWIDTH 16 0
BBX 13 10 2 0
BITMAP
1FF0
7838
7018
E000
E000
E000
E008
7018
7C38
1FF0
ENDCHAR

STARTCHAR D
ENCODING 68
SWIDTH 1152 0
DWIDTH 16 0
BBX 14 10 1 0
BITMAP
FFE0
3878
3838
381C
381C
381C
381C
3838
3878
FFE0
ENDCHAR

STARTCHAR E
ENCODING 69
SWIDTH 1152 0
DWIDTH 16 0
BBX 12 10 2 0
BITMAP
FFF0
3830
3810
3800
3FC0
3800
3800
3810
3830
FFF0
ENDCHAR

STARTCHAR F
ENCODING 70
SWIDTH 1152 0
DWIDTH 16 0
BBX 12 10 3 0
BITMAP
FFF0
3830
3810
3800
3800
3FC0
3800
3800
3800
FE00
ENDCHAR

STARTCHAR G
ENCODING 71
SWIDTH 1152 0
DWIDTH 16 0
BBX 13 10 2 0
BITMAP
0FF0
3830
7010
E000
E000
E0F8
E018
7018
7838
1FF0
ENDCHAR

STARTCHAR H
ENCODING 72
SWIDTH 1152 0
DWIDTH 16 0
BBX 13 10 2 0
BITMAP
F8F8
7070
7070
7070
7FF0
7070
7070
7070
7070
F8F8
ENDCHAR

STARTCHAR I
ENCODING 73
SWIDTH 1152 0
DWIDTH 16 0
BBX 9 10 4 0
BITMAP
FF80
1C00
1C00
1C00
1C00
1C00
1C00
1C00
1C00
FF80
ENDCHAR

STARTCHAR J
ENCODING 74
SWIDTH 1152 0
DWIDTH 16 0
BBX 10 10 3 0
BITMAP
3FC0
01C0
01C0
01C0
01C0
01C0
01C0
C1C0
E3C0
7F80
ENDCHAR

STARTCHAR K
ENCODING 75
SWIDTH 1152 0
DWIDTH 16 0
BBX 14 10 2 0
BITMAP
FC38
3870
38E0
39C0
3B80
3FC0
39E0
38F0
3878
FC3C
ENDCHAR

STARTCHAR L
ENCODING 76
SWIDTH 1152 0
DWIDTH 16 0
BBX 12 10 3 0
BITMAP
FE00
3800
3800
3800
3800
3800
3810
3830
3870
FFF0
ENDCHAR

STARTCHAR M
ENCODING 77
SWIDTH 1152 0
DWIDTH 16 0
BBX 14 10 2 0
BITMAP
F03C
7878
7CF8
74B8
77B8
7338
7338
7338
7038
F03C
ENDCHAR

STARTCHAR N
ENCODING 78
SWIDTH 1152 0
DWIDTH 16 0
BBX 14 10 2 0
BITMAP
F03C
7838
7C38
7638
7738
73B8
71B8
70F8
7078
F038
ENDCHAR

STARTCHAR O
ENCODING 79
SWIDTH 1152 0
DWIDTH 16 0
BBX 13 10 2 0
BITMAP
1FC0
78F0
7070
E038
E038
E038
E038
7070
78F0
1FC0
ENDCHAR

STARTCHAR P
ENCODING 80
SWIDTH 1152 0
DWIDTH 16 0
BBX 14 10 2 0
BITMAP
FFF0
3838
381C
381C
381C
3838
3FF0
3800
3800
FE00
ENDCHAR

STARTCHAR Q
ENCODING 81
SWIDTH 1152 0
DWIDTH 16 0
BBX 13 11 2 -1
BITMAP
1FC0
70F0
6070
E038
E038
E038
E038
71B0
78F0
1FE0
0038
ENDCHAR

STARTCHAR R
ENCODING 82
SWIDTH 1152 0
DWIDTH 16 0
BBX 14 10 2 0
BITMAP
FFF0
3878
3838
3838
3870
3FC0
39E0
38F0
3878
FE3C
ENDCHAR

STARTCHAR S
ENCODING 83
SWIDTH 1152 0
DWIDTH 16 0
BBX 12 10 3 0
BITMAP
1FC0
7060
E060
F000
7FC0
3FE0
00F0
C070
E0E0
7F80
ENDCHAR

STARTCHAR T
ENCODING 84
SWIDTH 1152 0
DWIDTH 16 0
BBX 13 10 2 0
BITMAP
FFF8
C718
8708
0700
0700
0700
0700
0700
0700
1FC0
ENDCHAR

STARTCHAR U
ENCODING 85
SWIDTH 1152 0
DWIDTH 16 0
BBX 13 10 2 0
BITMAP
F8F8
7070
7070
7070
7070
7070
7070
7070
38E0
1FC0
ENDCHAR

STARTCHAR V
ENCODING 86
SWIDTH 1152 0
DWIDTH 16 0
BBX 15 10 1 0
BITMAP
F01E
701C
3838
3838
1C70
1C70
0EE0
07C0
0380
0100
ENDCHAR

STARTCHAR W
ENCODING 87
SWIDTH 1152 0
DWIDTH 16 0
BBX 15 10 1 0
BITMAP
F01E
718E
399C
399C
1DB8
1FF8
0E70
0E70
0420
0420
ENDCHAR

STARTCHAR X
ENCODING 88
SWIDTH 1152 0
DWIDTH 16 0
BBX 14 10 1 0
BITMAP
F03C
3870
1CE0
0FC0
0780
0780
0FC0
1CE0
3870
F03C
ENDCHAR

STARTCHAR Y
ENCODING 89
SWIDTH 1152 0
DWIDTH 16 0
BBX 15 10 1 0
BITMAP
F01E
3838
1C70
0EE0
06C0
0380
0380
0380
0380
07C0
ENDCHAR

STARTCHAR Z
ENCODING 90
SWIDTH 1152 0
DWIDTH 16 0
BBX 11 10 3 0
BITMAP
FFE0
C1E0
83C0
0780
0F00
1E00
3C00
7820
F060
FFE0
ENDCHAR

STARTCHAR bracketleft
ENCODING 91
SWIDTH 1152 0
DWIDTH 16 0
BBX 5 12 9 -1
BITMAP
F8
E0
E0
E0
E0
E0
E0
E0
E0
E0
E0
F8
ENDCHAR

STARTCHAR backslash
ENCODING 92
SWIDTH 1152 0
DWIDTH 16 0
BBX 12 10 2 0
BITMAP
E000
7000
3800
1C00
0E00
0700
0380
01C0
00E0
0070
ENDCHAR

STARTCHAR bracketright
ENCODING 93
SWIDTH 1152 0
DWIDTH 16 0
BBX 6 12 2 -1
BITMAP
FC
1C
1C
1C
1C
1C
1C
1C
1C
1C
1C
FC
ENDCHAR

STARTCHAR asciicircum
ENCODING 94
SWIDTH 1152 0
DWIDTH 16 0
BBX 9 4 4 8
BITMAP
1C00
3E00
7700
E380
ENDCHAR

STARTCHAR underscore
ENCODING 95
SWIDTH 1152 0
DWIDTH 16 0
BBX 12 2 2 -1
BITMAP
FFF0
FFF0
ENDCHAR

STARTCHAR quoteleft
ENCODING 96
SWIDTH 1152 0
DWIDTH 16 0
BBX 5 3 6 8
BITMAP
F0
30
18
ENDCHAR

STARTCHAR a
ENCODING 97
SWIDTH 1152 0
DWIDTH 16 0
BBX 14 8 2 0
BITMAP
3FF0
7878
0038
0038
7FF8
F038
F078
7F9C
ENDCHAR

STARTCHAR b
ENCODING 98
SWIDTH 1152 0
DWIDTH 16 0
BBX 14 10 1 0
BITMAP
F800
3800
3BF0
3C38
381C
381C
381C
381C
3C38
3BF0
ENDCHAR

STARTCHAR c
ENCODING 99
SWIDTH 1152 0
DWIDTH 16 0
BBX 13 8 2 0
BITMAP
1FF0
7038
E018
E000
E000
F018
7838
1FF0
ENDCHAR

STARTCHAR d
ENCODING 100
SWIDTH 1152 0
DWIDTH 16 0
BBX 13 11 2 0
BITMAP
01F0
0070
0070
1F70
70F0
E070
E070
E070
E070
70F0
1F38
ENDCHAR

STARTCHAR e
ENCODING 101
SWIDTH 1152 0
DWIDTH 16 0
BBX 13 8 2 0
BITMAP
1FF0
7038
E038
FFF0
E000
E018
7038
3FF0
ENDCHAR

STARTCHAR f
ENCODING 102
SWIDTH 1152 0
DWIDTH 16 0
BBX 12 10 3 0
BITMAP
0FF0
1C00
1C00
FFE0
1C00
1C00
1C00
1C00
1C00
FFC0
ENDCHAR

STARTCHAR g
ENCODING 103
SWIDTH 1152 0
DWIDTH 16 0
BBX 14 10 2 -2
BITMAP
1FBC
7078
E038
E038
E038
7078
3FB8
0038
0070
7FE0
ENDCHAR

STARTCHAR h
ENCODING 104
SWIDTH 1152 0
DWIDTH 16 0
BBX 15 11 1 0
BITMAP
F800
3800
3800
3BF0
3C78
3838
3838
3838
3838
3838
F83E
ENDCHAR

STARTCHAR i
ENCODING 105
SWIDTH 1152 0
DWIDTH 16 0
BBX 13 11 2 0
BITMAP
0700
0700
0000
7F00
0700
0700
0700
0700
0700
0700
FFF8
ENDCHAR

STARTCHAR j
ENCODING 106
SWIDTH 1152 0
DWIDTH 16 0
BBX 10 13 3 -2
BITMAP
01C0
01C0
0000
7FC0
01C0
01C0
01C0
01C0
01C0
01C0
01C0
0380
FF00
ENDCHAR

STARTCHAR k
ENCODING 107
SWIDTH 1152 0
DWIDTH 16 0
BBX 15 10 1 0
BITMAP
F800
3800
383C
3870
39E0
3FC0
3F00
3BE0
38F8
FC3E
ENDCHAR

STARTCHAR l
ENCODING 108
SWIDTH 1152 0
DWIDTH 16 0
BBX 13 10 2 0
BITMAP
3F00
0700
0700
0700
0700
0700
0700
0700
0700
FFF8
ENDCHAR

STARTCHAR m
ENCODING 109
SWIDTH 1152 0
DWIDTH 16 0
BBX 16 8 0 0
BITMAP
F73C
79CE
718E
718E
718E
718E
718E
F18F
ENDCHAR

STARTCHAR n
ENCODING 110
SWIDTH 1152 0
DWIDTH 16 0
BBX 15 8 1 0
BITMAP
FBF0
3C78
3838
3838
3838
3838
3838
F83E
ENDCHAR

STARTCHAR o
ENCODING 111
SWIDTH 1152 0
DWIDTH 16 0
BBX 13 8 2 0
BITMAP
1FC0
7070
E038
E038
E038
E038
7070
1FC0
ENDCHAR

STARTCHAR p
ENCODING 112
SWIDTH 1152 0
DWIDTH 16 0
BBX 14 10 1 -2
BITMAP
FBF0
3C38
381C
381C
381C
381C
3C38
3BF0
3800
FE00
ENDCHAR

STARTCHAR q
ENCODING 113
SWIDTH 1152 0
DWIDTH 16 0
BBX 14 10 2 -2
BITMAP
1F78
70F0
E070
E070
E070
E070
70F0
1F70
0070
01FC
ENDCHAR

STARTCHAR r
ENCODING 114
SWIDTH 1152 0
DWIDTH 16 0
BBX 14 8 1 0
BITMAP
7EF8
0F1C
0E1C
0E00
0E00
0E00
0E00
FFE0
ENDCHAR

STARTCHAR s
ENCODING 115
SWIDTH 1152 0
DWIDTH 16 0
BBX 13 8 2 0
BITMAP
7FF0
F038
E000
7FF0
3FF8
0038
E078
7FF0
ENDCHAR

STARTCHAR t
ENCODING 116
SWIDTH 1152 0
DWIDTH 16 0
BBX 13 10 1 0
BITMAP
0E00
0E00
FFF8
0E00
0E00
0E00
0E00
0E00
0F00
07F8
ENDCHAR

STARTCHAR u
ENCODING 117
SWIDTH 1152 0
DWIDTH 16 0
BBX 15 8 1 0
BITMAP
F8F8
3838
3838
3838
3838
3838
3C78
1FBE
ENDCHAR

STARTCHAR v
ENCODING 118
SWIDTH 1152 0
DWIDTH 16 0
BBX 16 8 0 0
BITMAP
F80F
380E
1C1C
0E38
0770
0360
01C0
0080
ENDCHAR

STARTCHAR w
ENCODING 119
SWIDTH 1152 0
DWIDTH 16 0
BBX 16 8 0 0
BITMAP
F81F
718E
318C
399C
1BD8
1A58
0E70
0C30
ENDCHAR

STARTCHAR x
ENCODING 120
SWIDTH 1152 0
DWIDTH 16 0
BBX 14 8 1 0
BITMAP
F03C
3870
1CE0
0FC0
0780
1CE0
3870
F03C
ENDCHAR

STARTCHAR y
ENCODING 121
SWIDTH 1152 0
DWIDTH 16 0
BBX 16 10 0 -2
BITMAP
F81F
380E
1C1C
0E38
0770
03E0
01C0
0380
0700
3C00
ENDCHAR

STARTCHAR z
ENCODING 122
SWIDTH 1152 0
DWIDTH 16 0
BBX 12 8 2 0
BITMAP
FFF0
C3C0
8780
0F00
1E00
3C10
7830
FFF0
ENDCHAR

STARTCHAR braceleft
ENCODING 123
SWIDTH 1152 0
DWIDTH 16 0
BBX 10 12 5 -1
BITMAP
0FC0
1C00
3800
3800
1C00
F800
1C00
3800
3800
3800
1C00
0FC0
ENDCHAR

STARTCHAR bar
ENCODING 124
SWIDTH 1152 0
DWIDTH 16 0
BBX 2 11 8 0
BITMAP
C0
C0
C0
C0
C0
C0
C0
C0
C0
C0
C0
ENDCHAR

STARTCHAR braceright
ENCODING 125
SWIDTH 1152 0
DWIDTH 16 0
BBX 10 12 2 -1
BITMAP
FC00
0E00
0700
0700
0E00
07C0
0E00
0700
0700
0700
0E00
FC00
ENDCHAR

STARTCHAR asciitilde
ENCODING 126
SWIDTH 1152 0
DWIDTH 16 0
BBX 8 3 4 8
BITMAP
71
FF
8E
ENDCHAR

STARTCHAR unknown_0x80
ENCODING 128
SWIDTH 1152 0
DWIDTH 16 0
BBX 16 10 0 0
BITMAP
1FFF
78E3
70E1
E0E0
E0FE
E0E0
E0E0
70E1
78E3
1FFF
ENDCHAR

STARTCHAR unknown_0x81
ENCODING 129
SWIDTH 1152 0
DWIDTH 16 0
BBX 16 8 0 0
BITMAP
1E3E
73E7
E1C3
E1FF
E1C0
E1C0
73E3
1F7E
ENDCHAR

STARTCHAR unknown_0x82
ENCODING 130
SWIDTH 1152 0
DWIDTH 16 0
BBX 15 12 1 0
BITMAP
0C60
0C60
0000
F01E
3838
1C70
0EE0
07C0
0380
0380
0380
07C0
ENDCHAR

STARTCHAR unknown_0xa1
ENCODING 161
SWIDTH 1152 0
DWIDTH 16 0
BBX 2 12 10 -1
BITMAP
C0
C0
00
C0
C0
C0
C0
C0
C0
C0
C0
C0
ENDCHAR

STARTCHAR cent
ENCODING 162
SWIDTH 1152 0
DWIDTH 16 0
BBX 11 11 3 -1
BITMAP
0600
0600
3FC0
76E0
E600
E600
F600
7EE0
3FC0
0600
0600
ENDCHAR

STARTCHAR sterling
ENCODING 163
SWIDTH 1152 0
DWIDTH 16 0
BBX 12 10 3 0
BITMAP
0F80
1EC0
1C00
1C00
7F80
1C00
1C00
3C00
7E70
F3E0
ENDCHAR

STARTCHAR currency
ENCODING 164
SWIDTH 1152 0
DWIDTH 16 0
BBX 10 7 3 1
BITMAP
C0C0
7F80
E1C0
E1C0
E1C0
7F80
C0C0
ENDCHAR

STARTCHAR yen
ENCODING 165
SWIDTH 1152 0
DWIDTH 16 0
BBX 13 10 2 0
BITMAP
E038
7070
38E0
1DC0
7FF0
0700
0700
7FF0
0700
0F80
ENDCHAR

STARTCHAR brokenbar
ENCODING 166
SWIDTH 1152 0
DWIDTH 16 0
BBX 2 11 8 0
BITMAP
C0
C0
C0
C0
C0
00
C0
C0
C0
C0
C0
ENDCHAR

STARTCHAR section
ENCODING 167
SWIDTH 1152 0
DWIDTH 16 0
BBX 10 12 4 -1
BITMAP
7F80
F1C0
E000
E000
7F80
E1C0
E1C0
7F80
01C0
01C0
E3C0
7F80
ENDCHAR

STARTCHAR dieresis
ENCODING 168
SWIDTH 1152 0
DWIDTH 16 0
BBX 7 2 4 9
BITMAP
C6
C6
ENDCHAR

STARTCHAR copyright
ENCODING 169
SWIDTH 1152 0
DWIDTH 16 0
BBX 13 10 2 0
BITMAP
1FC0
78F0
E038
C798
CC18
CC18
C798
E038
78F0
1FC0
ENDCHAR

STARTCHAR multiply
ENCODING 170
SWIDTH 1152 0
DWIDTH 16 0
BBX 9 8 4 1
BITMAP
E380
7700
3E00
1C00
1C00
3E00
7700
E380
ENDCHAR

STARTCHAR guillemotleft
ENCODING 171
SWIDTH 1152 0
DWIDTH 16 0
BBX 11 7 4 1
BITMAP
1CE0
39C0
7380
E700
7380
39C0
1CE0
ENDCHAR

STARTCHAR logicalnot
ENCODING 172
SWIDTH 1152 0
DWIDTH 16 0
BBX 10 4 3 2
BITMAP
FFC0
FFC0
00C0
00C0
ENDCHAR

STARTCHAR hyphen
ENCODING 173
SWIDTH 1152 0
DWIDTH 16 0
BBX 6 2 5 4
BITMAP
FC
FC
ENDCHAR

STARTCHAR registered
ENCODING 174
SWIDTH 1152 0
DWIDTH 16 0
BBX 13 10 2 0
BITMAP
1FC0
78F0
E038
CF18
CD98
CF18
CD98
E038
78F0
1FC0
ENDCHAR

STARTCHAR macron
ENCODING 175
SWIDTH 1152 0
DWIDTH 16 0
BBX 7 2 4 9
BITMAP
FE
FE
ENDCHAR

STARTCHAR degree
ENCODING 176
SWIDTH 1152 0
DWIDTH 16 0
BBX 7 4 4 7
BITMAP
7C
EE
EE
7C
ENDCHAR

STARTCHAR plusminus
ENCODING 177
SWIDTH 1152 0
DWIDTH 16 0
BBX 10 10 3 0
BITMAP
0C00
0C00
0C00
FFC0
FFC0
0C00
0C00
0000
FFC0
FFC0
ENDCHAR

STARTCHAR twosuperior
ENCODING 178
SWIDTH 1152 0
DWIDTH 16 0
BBX 7 6 5 5
BITMAP
7C
CE
1C
78
E2
FE
ENDCHAR

STARTCHAR threesuperior
ENCODING 179
SWIDTH 1152 0
DWIDTH 16 0
BBX 7 6 5 5
BITMAP
7C
CE
18
0E
CE
7C
ENDCHAR

STARTCHAR acute
ENCODING 180
SWIDTH 1152 0
DWIDTH 16 0
BBX 4 3 6 9
BITMAP
30
60
C0
ENDCHAR

STARTCHAR mu
ENCODING 181
SWIDTH 1152 0
DWIDTH 16 0
BBX 14 10 1 -2
BITMAP
0E1C
0E38
1C38
1C70
3870
38E0
79E0
6EF8
C000
C000
ENDCHAR

STARTCHAR paragraph
ENCODING 182
SWIDTH 1152 0
DWIDTH 16 0
BBX 10 13 3 -2
BITMAP
3FC0
7D80
FD80
FD80
FD80
FD80
7D80
3D80
0D80
0D80
0D80
0D80
0D80
ENDCHAR

STARTCHAR periodcentered
ENCODING 183
SWIDTH 1152 0
DWIDTH 16 0
BBX 3 3 6 3
BITMAP
E0
E0
E0
ENDCHAR

STARTCHAR cedilla
ENCODING 184
SWIDTH 1152 0
DWIDTH 16 0
BBX 3 2 6 -2
BITMAP
60
C0
ENDCHAR

STARTCHAR onesuperior
ENCODING 185
SWIDTH 1152 0
DWIDTH 16 0
BBX 6 6 5 5
BITMAP
30
F0
30
30
30
FC
ENDCHAR

STARTCHAR divide
ENCODING 186
SWIDTH 1152 0
DWIDTH 16 0
BBX 10 8 3 1
BITMAP
0C00
0C00
0000
FFC0
FFC0
0000
0C00
0C00
ENDCHAR

STARTCHAR guillemotright
ENCODING 187
SWIDTH 1152 0
DWIDTH 16 0
BBX 11 7 1 1
BITMAP
E700
7380
39C0
1CE0
39C0
7380
E700
ENDCHAR

STARTCHAR onequarter
ENCODING 188
SWIDTH 1152 0
DWIDTH 16 0
BBX 13 12 2 -1
BITMAP
3018
F030
3060
30C0
FD80
0300
0630
0C70
18B0
3130
61F8
0030
ENDCHAR

STARTCHAR onehalf
ENCODING 189
SWIDTH 1152 0
DWIDTH 16 0
BBX 14 12 2 -1
BITMAP
3018
F030
3060
30C0
FD80
0300
0600
0CF8
191C
30F8
61C0
01FC
ENDCHAR

STARTCHAR threequarters
ENCODING 190
SWIDTH 1152 0
DWIDTH 16 0
BBX 15 12 0 -1
BITMAP
7C06
CE0C
1818
0E30
CE60
7CCC
019C
032C
064C
0C7E
180C
000C
ENDCHAR

STARTCHAR unknown_0xbf
ENCODING 191
SWIDTH 1152 0
DWIDTH 16 0
BBX 10 11 4 -1
BITMAP
0600
0600
0000
0600
0600
1E00
7800
E000
E0C0
F1C0
7F80
ENDCHAR

STARTCHAR dblunderscore
ENCODING 223
SWIDTH 1152 0
DWIDTH 16 0
BBX 16 15 0 -1
BITMAP
0000
0000
0000
0000
0000
0000
0000
0000
3FFC
3FFC
0000
0000
3FFC
3FFC
0000
ENDCHAR

STARTCHAR aleph
ENCODING 224
SWIDTH 1152 0
DWIDTH 16 0
BBX 16 10 0 -1
BITMAP
1C1C
0E1C
071C
0FDC
1DF8
1C70
1C38
1C18
1C1C
0000
ENDCHAR

STARTCHAR beth
ENCODING 225
SWIDTH 1152 0
DWIDTH 16 0
BBX 16 10 0 -1
BITMAP
0FF0
0038
0038
0038
0038
0038
0038
0038
0FFE
0000
ENDCHAR

STARTCHAR gimmel
ENCODING 226
SWIDTH 1152 0
DWIDTH 16 0
BBX 16 10 0 -1
BITMAP
03E0
0070
0070
0070
00F0
01F0
0370
0670
0C70
0000
ENDCHAR

STARTCHAR daleth
ENCODING 227
SWIDTH 1152 0
DWIDTH 16 0
BBX 16 10 0 -1
BITMAP
1FFC
0070
0070
0070
0070
0070
0070
0070
0070
0000
ENDCHAR

STARTCHAR he
ENCODING 228
SWIDTH 1152 0
DWIDTH 16 0
BBX 16 10 0 -1
BITMAP
1FF8
001C
001C
1C1C
1C1C
1C1C
1C1C
1C1C
1C1C
0000
ENDCHAR

STARTCHAR waw
ENCODING 229
SWIDTH 1152 0
DWIDTH 16 0
BBX 16 10 0 -1
BITMAP
07C0
00E0
00E0
00E0
00E0
00E0
00E0
00E0
00E0
0000
ENDCHAR

STARTCHAR zayin
ENCODING 230
SWIDTH 1152 0
DWIDTH 16 0
BBX 16 10 0 -1
BITMAP
0FF8
01C0
01C0
01C0
00E0
00E0
00E0
00E0
00E0
0000
ENDCHAR

STARTCHAR het
ENCODING 231
SWIDTH 1152 0
DWIDTH 16 0
BBX 16 10 0 -1
BITMAP
1FF8
1C1C
1C1C
1C1C
1C1C
1C1C
1C1C
1C1C
1C1C
0000
ENDCHAR

STARTCHAR teth
ENCODING 232
SWIDTH 1152 0
DWIDTH 16 0
BBX 16 10 0 -1
BITMAP
71F0
73B8
739C
701C
701C
701C
3018
3838
0FE0
0000
ENDCHAR

STARTCHAR yod
ENCODING 233
SWIDTH 1152 0
DWIDTH 16 0
BBX 16 13 0 -1
BITMAP
0000
0000
0000
07C0
00E0
00E0
00E0
00E0
0000
0000
0000
0000
0000
ENDCHAR

STARTCHAR kaphfinal
ENCODING 234
SWIDTH 1152 0
DWIDTH 16 0
BBX 16 10 0 -1
BITMAP
1FF8
001C
001C
001C
001C
001C
001C
001C
001C
001C
ENDCHAR

STARTCHAR kaph
ENCODING 235
SWIDTH 1152 0
DWIDTH 16 0
BBX 16 10 0 -1
BITMAP
0FC0
00F0
0038
003C
001C
003C
0038
00F0
0FC0
0000
ENDCHAR

STARTCHAR lamed
ENCODING 236
SWIDTH 1152 0
DWIDTH 16 0
BBX 16 13 0 -1
BITMAP
1C00
1C00
1C00
1C00
1FF8
001C
001C
003C
0038
0078
00F0
01E0
0000
ENDCHAR

STARTCHAR memfinal
ENCODING 237
SWIDTH 1152 0
DWIDTH 16 0
BBX 16 10 0 -1
BITMAP
1FFC
1C0E
1C0E
1C0E
1C0E
1C0E
1C0E
1C0E
1FFE
0000
ENDCHAR

STARTCHAR mem
ENCODING 238
SWIDTH 1152 0
DWIDTH 16 0
BBX 16 10 0 -1
BITMAP
38E0
3BB8
3E1C
0C0C
1C0E
1C0E
380E
380E
39FC
0000
ENDCHAR

STARTCHAR nunfinal
ENCODING 239
SWIDTH 1152 0
DWIDTH 16 0
BBX 16 12 0 -3
BITMAP
01F8
0038
0038
0038
0038
0038
0038
0038
0038
0038
0038
0000
ENDCHAR

STARTCHAR nun
ENCODING 240
SWIDTH 1152 0
DWIDTH 16 0
BBX 16 10 0 -1
BITMAP
07E0
0070
0070
0070
0070
0070
0070
0070
07F0
0000
ENDCHAR

STARTCHAR samekh
ENCODING 241
SWIDTH 1152 0
DWIDTH 16 0
BBX 16 10 0 -1
BITMAP
1FFC
1C0E
1C0E
1C0E
1C0E
1C0E
0C0C
0E1C
03F0
0000
ENDCHAR

STARTCHAR ayin
ENCODING 242
SWIDTH 1152 0
DWIDTH 16 0
BBX 16 10 0 -1
BITMAP
0E1C
0E1C
0E1C
0E1C
0E1C
0E1C
0E18
0E38
3FE0
0000
ENDCHAR

STARTCHAR pefinal
ENCODING 243
SWIDTH 1152 0
DWIDTH 16 0
BBX 16 12 0 -3
BITMAP
1FF8
1C1C
1C1C
1C1C
1C1C
1F9C
001C
001C
001C
001C
001C
0000
ENDCHAR

STARTCHAR pe
ENCODING 244
SWIDTH 1152 0
DWIDTH 16 0
BBX 16 10 0 -1
BITMAP
0FF0
0E1C
0E0C
0E0E
0E0E
0FCE
000E
000E
0FFE
0000
ENDCHAR

STARTCHAR zadikfinal
ENCODING 245
SWIDTH 1152 0
DWIDTH 16 0
BBX 16 12 0 -3
BITMAP
1C1C
1C1C
1C38
1C38
1CF0
1FC0
1C00
1C00
1C00
1C00
1C00
0000
ENDCHAR

STARTCHAR zadik
ENCODING 246
SWIDTH 1152 0
DWIDTH 16 0
BBX 16 10 0 -1
BITMAP
1C1C
1E1C
0E1C
0F38
07E0
01F0
0078
001C
1FFC
0000
ENDCHAR

STARTCHAR kof
ENCODING 247
SWIDTH 1152 0
DWIDTH 16 0
BBX 16 12 0 -3
BITMAP
3FF8
001C
001C
1C1C
1C38
1C38
1C70
1CE0
1DC0
1C00
1C00
0000
ENDCHAR

STARTCHAR resh
ENCODING 248
SWIDTH 1152 0
DWIDTH 16 0
BBX 16 10 0 -1
BITMAP
1FF0
0038
0038
0038
0038
0038
0038
0038
0038
0000
ENDCHAR

STARTCHAR shin
ENCODING 249
SWIDTH 1152 0
DWIDTH 16 0
BBX 16 10 0 -1
BITMAP
71C7
71C7
71C7
71C7
71C7
71C7
3006
380E
0FF8
0000
ENDCHAR

STARTCHAR taf
ENCODING 250
SWIDTH 1152 0
DWIDTH 16 0
BBX 15 11 1 -1
BITMAP
0000
7FF8
1C1C
1C1C
1C1C
1C1C
1C1C
1C1C
1C1C
781C
0000
ENDCHAR
ENDFONT
